<?xml version="1.0" encoding="UTF-8"?>
<svg id="Layer_1" data-name="Layer 1" xmlns="http://www.w3.org/2000/svg" viewBox="0 0 433.52 426.35">
  <defs>
    <style>
      .cls-1 {
        stroke-width: 0px;
      }
    </style>
  </defs>
  <g>
    <path class="cls-1" d="m81.91,104.78c-5.7,24.36-11.69,29.61-35.13,34.9,27.84,4.84,31.22,17.59,34.9,34.67,5.84-28.91,17.39-30.41,34.9-34.79-22.85-5.41-29.14-9.72-34.67-34.79Z"/>
    <path class="cls-1" d="m63.65,61.19c-4.1,17.5-8.4,21.27-25.24,25.07,20,3.48,22.43,12.63,25.07,24.91,4.19-20.77,12.5-21.85,25.07-24.99-16.41-3.89-20.94-6.98-24.91-24.99Z"/>
    <path class="cls-1" d="m32.69,97.06c-2.98,12.71-6.1,15.45-18.33,18.21,14.53,2.52,16.29,9.18,18.21,18.09,3.05-15.09,9.08-15.87,18.21-18.15-11.92-2.83-15.21-5.07-18.09-18.15Z"/>
  </g>
  <g>
    <path class="cls-1" d="m351.61,104.78c5.7,24.36,11.69,29.61,35.13,34.9-27.84,4.84-31.22,17.59-34.9,34.67-5.84-28.91-17.39-30.41-34.9-34.79,22.85-5.41,29.14-9.72,34.67-34.79Z"/>
    <path class="cls-1" d="m369.87,61.19c4.1,17.5,8.4,21.27,25.24,25.07-20,3.48-22.43,12.63-25.07,24.91-4.19-20.77-12.5-21.85-25.07-24.99,16.41-3.89,20.94-6.98,24.91-24.99Z"/>
    <path class="cls-1" d="m400.83,97.06c2.98,12.71,6.1,15.45,18.33,18.21-14.53,2.52-16.29,9.18-18.21,18.09-3.05-15.09-9.08-15.87-18.21-18.15,11.92-2.83,15.21-5.07,18.09-18.15Z"/>
  </g>
  <path class="cls-1" d="m167.69,318.66l-38,61.67c7.65,6.54,16.02,12.24,25,16.95l25.96-37.6-11.66,44.08c11.58,4.46,23.92,7.39,36.77,8.48l11.83-54.89,11.83,54.89c12.85-1.08,25.19-4.02,36.77-8.48l-11.66-44.08,25.96,37.6c8.99-4.72,17.36-10.41,25-16.95l-38-61.67h-99.8Z"/>
  <path class="cls-1" d="m352.72,268.49c-3.53-52.66-37.11-84.76-44.61-91.58-.57,8.62-3.08,28.19-17.33,46.63-7.48,9.69-15.78,15.91-21.94,19.74,5.63-10.09,39.41-72.99,13.66-145.26-17.06-47.9-51.18-74.35-64.9-83.89-13.72,9.54-47.84,35.99-64.9,83.89-25.75,72.27,8.03,135.17,13.66,145.26-6.16-3.82-14.47-10.05-21.94-19.74-14.25-18.44-16.76-38-17.33-46.63-7.5,6.82-41.09,38.92-44.61,91.58-2.87,42.72,15.76,73.78,22.39,83.83,0-29.08,23.58-52.64,52.64-52.64l60.1.04,60.1-.04c29.08,0,52.64,23.56,52.64,52.64,6.63-10.05,25.26-41.11,22.39-83.83Zm-135.13-115.67c-13.32,0-24.11-10.81-24.11-24.13s10.79-24.11,24.11-24.11,24.13,10.79,24.13,24.11-10.81,24.13-24.13,24.13Z"/>
</svg>