<svg xmlns="http://www.w3.org/2000/svg" xmlns:xlink="http://www.w3.org/1999/xlink" width="1920" zoomAndPan="magnify" viewBox="0 0 1440 809.999993" height="1080" preserveAspectRatio="xMidYMid meet" version="1.0"><defs><g/><clipPath id="956e84a613"><path d="M 506.402344 313.800781 L 611.695312 313.800781 L 611.695312 419.09375 L 506.402344 419.09375 Z M 506.402344 313.800781 " clip-rule="nonzero"/></clipPath><clipPath id="18c374c8b9"><path d="M 559.046875 313.800781 C 529.972656 313.800781 506.402344 337.371094 506.402344 366.445312 C 506.402344 395.523438 529.972656 419.09375 559.046875 419.09375 C 588.125 419.09375 611.695312 395.523438 611.695312 366.445312 C 611.695312 337.371094 588.125 313.800781 559.046875 313.800781 Z M 559.046875 313.800781 " clip-rule="nonzero"/></clipPath><clipPath id="f49b894a9e"><path d="M 81 560.023438 L 186.292969 560.023438 L 186.292969 665.316406 L 81 665.316406 Z M 81 560.023438 " clip-rule="nonzero"/></clipPath><clipPath id="7e79faff4e"><path d="M 133.644531 560.023438 C 104.570312 560.023438 81 583.59375 81 612.671875 C 81 641.746094 104.570312 665.316406 133.644531 665.316406 C 162.722656 665.316406 186.292969 641.746094 186.292969 612.671875 C 186.292969 583.59375 162.722656 560.023438 133.644531 560.023438 Z M 133.644531 560.023438 " clip-rule="nonzero"/></clipPath><clipPath id="49453e5109"><path d="M 629.628906 313.800781 L 813.480469 313.800781 L 813.480469 419.09375 L 629.628906 419.09375 Z M 629.628906 313.800781 " clip-rule="nonzero"/></clipPath><clipPath id="873f0a9c78"><path d="M 682.277344 313.800781 L 760.722656 313.800781 C 789.796875 313.800781 813.367188 337.371094 813.367188 366.445312 C 813.367188 395.523438 789.796875 419.09375 760.722656 419.09375 L 682.277344 419.09375 C 653.199219 419.09375 629.628906 395.523438 629.628906 366.445312 C 629.628906 337.371094 653.199219 313.800781 682.277344 313.800781 Z M 682.277344 313.800781 " clip-rule="nonzero"/></clipPath><clipPath id="216d684c9c"><path d="M 204.214844 560.023438 L 602.761719 560.023438 L 602.761719 665.316406 L 204.214844 665.316406 Z M 204.214844 560.023438 " clip-rule="nonzero"/></clipPath><clipPath id="ef9f2dc8bf"><path d="M 256.859375 560.023438 L 549.84375 560.023438 C 578.917969 560.023438 602.488281 583.59375 602.488281 612.671875 C 602.488281 641.746094 578.917969 665.316406 549.84375 665.316406 L 256.859375 665.316406 C 227.785156 665.316406 204.214844 641.746094 204.214844 612.671875 C 204.214844 583.59375 227.785156 560.023438 256.859375 560.023438 Z M 256.859375 560.023438 " clip-rule="nonzero"/></clipPath><clipPath id="14a49dcc5d"><path d="M 531 330.773438 L 678.46875 330.773438 L 678.46875 402.023438 L 531 402.023438 Z M 531 330.773438 " clip-rule="nonzero"/></clipPath><clipPath id="0c7b1e522b"><path d="M 132.722656 575.835938 L 280.472656 575.835938 L 280.472656 647.085938 L 132.722656 647.085938 Z M 132.722656 575.835938 " clip-rule="nonzero"/></clipPath><clipPath id="85fa1010cd"><path d="M 632.488281 578.175781 L 701.488281 578.175781 L 701.488281 647.175781 L 632.488281 647.175781 Z M 632.488281 578.175781 " clip-rule="nonzero"/></clipPath></defs><rect x="-144" width="1728" fill="#ffffff" y="-80.999999" height="971.999992" fill-opacity="1"/><rect x="-144" width="1728" fill="#0a0c0d" y="-80.999999" height="971.999992" fill-opacity="1"/><g clip-path="url(#956e84a613)"><g clip-path="url(#18c374c8b9)"><path fill="#2ea298" d="M 506.402344 313.800781 L 611.695312 313.800781 L 611.695312 419.09375 L 506.402344 419.09375 Z M 506.402344 313.800781 " fill-opacity="1" fill-rule="nonzero"/></g></g><g clip-path="url(#f49b894a9e)"><g clip-path="url(#7e79faff4e)"><path fill="#98d6ff" d="M 81 560.023438 L 186.292969 560.023438 L 186.292969 665.316406 L 81 665.316406 Z M 81 560.023438 " fill-opacity="1" fill-rule="nonzero"/></g></g><g clip-path="url(#49453e5109)"><g clip-path="url(#873f0a9c78)"><path fill="#ed70c0" d="M 629.628906 313.800781 L 813.480469 313.800781 L 813.480469 419.09375 L 629.628906 419.09375 Z M 629.628906 313.800781 " fill-opacity="1" fill-rule="nonzero"/></g></g><g clip-path="url(#216d684c9c)"><g clip-path="url(#ef9f2dc8bf)"><path fill="#fadf47" d="M 204.214844 560.023438 L 602.351562 560.023438 L 602.351562 665.316406 L 204.214844 665.316406 Z M 204.214844 560.023438 " fill-opacity="1" fill-rule="nonzero"/></g></g><g clip-path="url(#14a49dcc5d)"><path fill="#ffffff" d="M 562.894531 330.785156 L 571.78125 338.699219 L 552.351562 360.507812 L 678.332031 360.507812 L 678.332031 372.402344 L 552.351562 372.402344 L 571.78125 394.210938 L 562.894531 402.125 L 531.136719 366.457031 Z M 562.894531 330.785156 " fill-opacity="1" fill-rule="nonzero"/></g><g clip-path="url(#0c7b1e522b)"><path fill="#ffffff" d="M 248.296875 575.847656 L 239.410156 583.761719 L 258.839844 605.570312 L 132.859375 605.570312 L 132.859375 617.464844 L 258.839844 617.464844 L 239.410156 639.273438 L 248.296875 647.1875 L 280.058594 611.515625 Z M 248.296875 575.847656 " fill-opacity="1" fill-rule="nonzero"/></g><g clip-path="url(#85fa1010cd)"><path fill="#ffffff" d="M 673.03125 592.398438 C 680.085938 590.769531 685.640625 585.214844 687.265625 578.164062 C 688.894531 585.214844 694.445312 590.769531 701.5 592.398438 C 694.445312 594.023438 688.894531 599.578125 687.265625 606.632812 C 685.660156 599.667969 680.230469 594.171875 673.308594 592.464844 Z M 632.488281 619.785156 C 646.0625 616.65625 656.746094 605.96875 659.878906 592.398438 C 663.007812 605.96875 673.695312 616.652344 687.265625 619.785156 C 673.695312 622.917969 663.007812 633.601562 659.878906 647.175781 C 656.789062 633.777344 646.339844 623.199219 633.023438 619.910156 Z M 632.488281 619.785156 " fill-opacity="1" fill-rule="nonzero"/></g><path fill="#ffffff" d="M 1088.546875 415.199219 C 1084.214844 433.710938 1079.664062 437.699219 1061.855469 441.71875 C 1083.007812 445.398438 1085.578125 455.085938 1088.371094 468.066406 C 1092.808594 446.097656 1101.585938 444.957031 1114.886719 441.628906 C 1097.527344 437.515625 1092.75 434.242188 1088.546875 415.191406 Z M 1088.546875 415.199219 " fill-opacity="1" fill-rule="nonzero"/><path fill="#ffffff" d="M 1074.675781 382.070312 C 1071.558594 395.371094 1068.292969 398.234375 1055.496094 401.125 C 1070.691406 403.769531 1072.539062 410.722656 1074.542969 420.054688 C 1077.726562 404.269531 1084.042969 403.449219 1093.589844 401.0625 C 1081.125 398.105469 1077.683594 395.757812 1074.667969 382.070312 Z M 1074.675781 382.070312 " fill-opacity="1" fill-rule="nonzero"/><path fill="#ffffff" d="M 1051.152344 409.332031 C 1048.886719 418.988281 1046.519531 421.070312 1037.226562 423.167969 C 1048.265625 425.085938 1049.601562 430.144531 1051.0625 436.917969 C 1053.378906 425.449219 1057.960938 424.855469 1064.894531 423.125 C 1055.839844 420.972656 1053.339844 419.269531 1051.152344 409.332031 Z M 1051.152344 409.332031 " fill-opacity="1" fill-rule="nonzero"/><path fill="#ffffff" d="M 1293.453125 415.199219 C 1297.78125 433.710938 1302.332031 437.699219 1320.140625 441.71875 C 1298.988281 445.398438 1296.421875 455.085938 1293.625 468.066406 C 1289.1875 446.097656 1280.414062 444.957031 1267.109375 441.628906 C 1284.472656 437.515625 1289.25 434.242188 1293.453125 415.191406 Z M 1293.453125 415.199219 " fill-opacity="1" fill-rule="nonzero"/><path fill="#ffffff" d="M 1307.324219 382.070312 C 1310.441406 395.371094 1313.707031 398.234375 1326.5 401.125 C 1311.304688 403.769531 1309.460938 410.722656 1307.453125 420.054688 C 1304.269531 404.269531 1297.957031 403.449219 1288.40625 401.0625 C 1300.875 398.105469 1304.316406 395.757812 1307.332031 382.070312 Z M 1307.324219 382.070312 " fill-opacity="1" fill-rule="nonzero"/><path fill="#ffffff" d="M 1330.847656 409.332031 C 1333.109375 418.988281 1335.480469 421.070312 1344.773438 423.167969 C 1333.734375 425.085938 1332.394531 430.144531 1330.9375 436.917969 C 1328.621094 425.449219 1324.039062 424.855469 1317.101562 423.125 C 1326.160156 420.972656 1328.660156 419.269531 1330.847656 409.332031 Z M 1330.847656 409.332031 " fill-opacity="1" fill-rule="nonzero"/><path fill="#ffffff" d="M 1153.71875 577.734375 L 1124.847656 624.597656 C 1130.660156 629.570312 1137.019531 633.902344 1143.839844 637.480469 L 1163.566406 608.90625 L 1154.707031 642.40625 C 1163.503906 645.792969 1172.878906 648.019531 1182.640625 648.847656 L 1191.628906 607.136719 L 1200.617188 648.847656 C 1210.378906 648.027344 1219.757812 645.792969 1228.554688 642.40625 L 1219.695312 608.90625 L 1239.417969 637.480469 C 1246.25 633.894531 1252.609375 629.570312 1258.410156 624.597656 L 1229.542969 577.734375 Z M 1153.71875 577.734375 " fill-opacity="1" fill-rule="nonzero"/><path fill="#ffffff" d="M 1294.296875 539.609375 C 1291.613281 499.589844 1266.101562 475.195312 1260.402344 470.011719 C 1259.96875 476.5625 1258.0625 491.433594 1247.234375 505.449219 C 1241.554688 512.8125 1235.246094 517.539062 1230.566406 520.449219 C 1234.84375 512.78125 1260.507812 464.980469 1240.945312 410.0625 C 1227.984375 373.660156 1202.0625 353.558594 1191.636719 346.308594 C 1181.214844 353.558594 1155.292969 373.660156 1142.328125 410.0625 C 1122.765625 464.980469 1148.429688 512.78125 1152.707031 520.449219 C 1148.027344 517.546875 1141.714844 512.8125 1136.039062 505.449219 C 1125.210938 491.433594 1123.304688 476.570312 1122.871094 470.011719 C 1117.175781 475.195312 1091.65625 499.589844 1088.980469 539.609375 C 1086.800781 572.070312 1100.953125 595.675781 1105.992188 603.3125 C 1105.992188 581.214844 1123.90625 563.308594 1145.984375 563.308594 L 1191.644531 563.339844 L 1237.304688 563.308594 C 1259.398438 563.308594 1277.300781 581.214844 1277.300781 603.3125 C 1282.335938 595.675781 1296.492188 572.070312 1294.308594 539.609375 Z M 1191.628906 451.707031 C 1181.511719 451.707031 1173.3125 443.492188 1173.3125 433.367188 C 1173.3125 423.246094 1181.511719 415.046875 1191.628906 415.046875 C 1201.75 415.046875 1209.960938 423.246094 1209.960938 433.367188 C 1209.960938 443.492188 1201.75 451.707031 1191.628906 451.707031 Z M 1191.628906 451.707031 " fill-opacity="1" fill-rule="nonzero"/><g fill="#ffffff" fill-opacity="1"><g transform="translate(81.000002, 397.551456)"><g><path d="M 7.125 0 L 7.125 -63.640625 L 30.546875 -63.640625 C 35.179688 -63.640625 39.332031 -62.835938 43 -61.234375 C 46.664062 -59.640625 49.5625 -57.285156 51.6875 -54.171875 C 53.8125 -51.066406 54.875 -47.269531 54.875 -42.78125 C 54.875 -38.550781 53.9375 -34.9375 52.0625 -31.9375 C 50.1875 -28.945312 47.550781 -26.660156 44.15625 -25.078125 C 40.769531 -23.492188 36.789062 -22.703125 32.21875 -22.703125 L 20.0625 -22.703125 L 20.0625 0 Z M 19.9375 -32.65625 L 31.859375 -32.65625 C 35.085938 -32.65625 37.726562 -33.6875 39.78125 -35.75 C 41.832031 -37.820312 42.859375 -40.382812 42.859375 -43.4375 C 42.859375 -46.601562 41.769531 -49.117188 39.59375 -50.984375 C 37.425781 -52.847656 34.789062 -53.78125 31.6875 -53.78125 L 19.9375 -53.78125 Z M 19.9375 -32.65625 "/></g></g></g><g fill="#ffffff" fill-opacity="1"><g transform="translate(138.432454, 397.551456)"><g><path d="M 22.265625 0.875 C 20.148438 0.875 18.070312 0.550781 16.03125 -0.09375 C 14 -0.738281 12.144531 -1.691406 10.46875 -2.953125 C 8.800781 -4.210938 7.457031 -5.765625 6.4375 -7.609375 C 5.425781 -9.460938 4.921875 -11.601562 4.921875 -14.03125 L 4.921875 -45.5 L 17.78125 -45.5 L 17.78125 -15.671875 C 17.78125 -13.554688 18.46875 -11.820312 19.84375 -10.46875 C 21.226562 -9.125 23.253906 -8.453125 25.921875 -8.453125 C 28.441406 -8.453125 30.441406 -9.101562 31.921875 -10.40625 C 33.410156 -11.707031 34.15625 -13.535156 34.15625 -15.890625 L 34.15625 -45.5 L 46.875 -45.5 L 46.875 0 L 37.1875 0 L 35.6875 -9.015625 C 35.15625 -6.347656 34.164062 -4.300781 32.71875 -2.875 C 31.269531 -1.457031 29.613281 -0.476562 27.75 0.0625 C 25.882812 0.601562 24.054688 0.875 22.265625 0.875 Z M 22.265625 0.875 "/></g></g></g><g fill="#ffffff" fill-opacity="1"><g transform="translate(190.231685, 397.551456)"><g><path d="M 5.5 0 L 5.5 -45.5 L 17.859375 -45.5 L 17.859375 -34.71875 C 18.597656 -37.039062 19.632812 -39.070312 20.96875 -40.8125 C 22.300781 -42.5625 23.921875 -43.925781 25.828125 -44.90625 C 27.734375 -45.894531 29.890625 -46.390625 32.296875 -46.390625 C 32.710938 -46.390625 33.101562 -46.363281 33.46875 -46.3125 C 33.832031 -46.269531 34.101562 -46.207031 34.28125 -46.125 L 34.28125 -33.890625 C 34.019531 -34.003906 33.703125 -34.078125 33.328125 -34.109375 C 32.960938 -34.140625 32.632812 -34.164062 32.34375 -34.1875 C 29.820312 -34.394531 27.664062 -34.320312 25.875 -33.96875 C 24.082031 -33.625 22.628906 -33.023438 21.515625 -32.171875 C 20.398438 -31.316406 19.59375 -30.273438 19.09375 -29.046875 C 18.59375 -27.816406 18.34375 -26.4375 18.34375 -24.90625 L 18.34375 0 Z M 5.5 0 "/></g></g></g><g fill="#ffffff" fill-opacity="1"><g transform="translate(226.011446, 397.551456)"><g><path d="M 26.578125 15.046875 C 18.484375 15.046875 12.328125 14.019531 8.109375 11.96875 C 3.898438 9.914062 1.796875 7.21875 1.796875 3.875 C 1.796875 2.320312 2.207031 1.019531 3.03125 -0.03125 C 3.851562 -1.09375 4.8125 -1.9375 5.90625 -2.5625 C 7.007812 -3.195312 8.023438 -3.679688 8.953125 -4.015625 C 9.878906 -4.359375 10.445312 -4.585938 10.65625 -4.703125 C 10.1875 -4.972656 9.507812 -5.363281 8.625 -5.875 C 7.75 -6.382812 6.9375 -7.085938 6.1875 -7.984375 C 5.4375 -8.878906 5.0625 -10.046875 5.0625 -11.484375 C 5.0625 -13.097656 5.832031 -14.59375 7.375 -15.96875 C 8.914062 -17.351562 11.253906 -18.304688 14.390625 -18.828125 C 11.398438 -20.242188 9.125 -22.15625 7.5625 -24.5625 C 6.007812 -26.96875 5.234375 -29.429688 5.234375 -31.953125 C 5.234375 -34.941406 6.171875 -37.503906 8.046875 -39.640625 C 9.929688 -41.785156 12.492188 -43.414062 15.734375 -44.53125 C 18.972656 -45.644531 22.644531 -46.203125 26.75 -46.203125 C 29.894531 -46.203125 32.460938 -45.875 34.453125 -45.21875 C 36.453125 -44.5625 38.300781 -43.703125 40 -42.640625 C 40.675781 -42.910156 41.570312 -43.253906 42.6875 -43.671875 C 43.800781 -44.097656 45.003906 -44.566406 46.296875 -45.078125 C 47.585938 -45.597656 48.847656 -46.113281 50.078125 -46.625 C 51.304688 -47.132812 52.40625 -47.597656 53.375 -48.015625 L 53.34375 -38.0625 L 45.453125 -36.796875 C 45.773438 -36.003906 46.023438 -35.148438 46.203125 -34.234375 C 46.378906 -33.328125 46.46875 -32.582031 46.46875 -32 C 46.46875 -29.351562 45.695312 -26.882812 44.15625 -24.59375 C 42.613281 -22.3125 40.3125 -20.460938 37.25 -19.046875 C 34.1875 -17.640625 30.394531 -16.9375 25.875 -16.9375 C 25.320312 -16.9375 24.582031 -16.953125 23.65625 -16.984375 C 22.726562 -17.015625 21.972656 -17.0625 21.390625 -17.125 C 19.660156 -17.03125 18.472656 -16.804688 17.828125 -16.453125 C 17.179688 -16.109375 16.859375 -15.703125 16.859375 -15.234375 C 16.859375 -14.523438 17.515625 -14.0625 18.828125 -13.84375 C 20.148438 -13.625 22.148438 -13.425781 24.828125 -13.25 C 25.765625 -13.1875 27.066406 -13.109375 28.734375 -13.015625 C 30.410156 -12.929688 32.257812 -12.816406 34.28125 -12.671875 C 39.851562 -12.296875 44.007812 -10.925781 46.75 -8.5625 C 49.5 -6.195312 50.875 -3.222656 50.875 0.359375 C 50.875 4.609375 48.851562 8.117188 44.8125 10.890625 C 40.78125 13.660156 34.703125 15.046875 26.578125 15.046875 Z M 28.65625 7.875 C 32.226562 7.875 34.773438 7.429688 36.296875 6.546875 C 37.828125 5.671875 38.59375 4.410156 38.59375 2.765625 C 38.59375 1.390625 38.003906 0.269531 36.828125 -0.59375 C 35.660156 -1.457031 33.945312 -1.960938 31.6875 -2.109375 L 21.25 -2.8125 C 19.90625 -2.875 18.710938 -2.671875 17.671875 -2.203125 C 16.628906 -1.734375 15.820312 -1.085938 15.25 -0.265625 C 14.675781 0.554688 14.390625 1.4375 14.390625 2.375 C 14.390625 4.28125 15.546875 5.671875 17.859375 6.546875 C 20.179688 7.429688 23.78125 7.875 28.65625 7.875 Z M 26.234375 -24.109375 C 28.660156 -24.109375 30.613281 -24.773438 32.09375 -26.109375 C 33.582031 -27.453125 34.328125 -29.265625 34.328125 -31.546875 C 34.328125 -33.929688 33.582031 -35.84375 32.09375 -37.28125 C 30.613281 -38.71875 28.660156 -39.4375 26.234375 -39.4375 C 23.828125 -39.4375 21.867188 -38.71875 20.359375 -37.28125 C 18.847656 -35.84375 18.09375 -33.929688 18.09375 -31.546875 C 18.09375 -29.296875 18.816406 -27.492188 20.265625 -26.140625 C 21.710938 -24.785156 23.703125 -24.109375 26.234375 -24.109375 Z M 26.234375 -24.109375 "/></g></g></g><g fill="#ffffff" fill-opacity="1"><g transform="translate(281.287419, 397.551456)"><g><path d="M 16.0625 -19.796875 C 16.03125 -17.484375 16.394531 -15.46875 17.15625 -13.75 C 17.925781 -12.03125 19.035156 -10.707031 20.484375 -9.78125 C 21.929688 -8.863281 23.6875 -8.40625 25.75 -8.40625 C 27.945312 -8.40625 29.875 -8.875 31.53125 -9.8125 C 33.1875 -10.75 34.335938 -12.289062 34.984375 -14.4375 L 46.5625 -14.4375 C 46.0625 -11.207031 44.773438 -8.445312 42.703125 -6.15625 C 40.640625 -3.875 38.140625 -2.128906 35.203125 -0.921875 C 32.273438 0.273438 29.222656 0.875 26.046875 0.875 C 21.554688 0.875 17.601562 -0.0664062 14.1875 -1.953125 C 10.769531 -3.847656 8.109375 -6.523438 6.203125 -9.984375 C 4.296875 -13.453125 3.34375 -17.53125 3.34375 -22.21875 C 3.34375 -26.769531 4.207031 -30.867188 5.9375 -34.515625 C 7.664062 -38.171875 10.179688 -41.0625 13.484375 -43.1875 C 16.785156 -45.320312 20.753906 -46.390625 25.390625 -46.390625 C 30.023438 -46.390625 33.921875 -45.410156 37.078125 -43.453125 C 40.234375 -41.503906 42.609375 -38.789062 44.203125 -35.3125 C 45.804688 -31.832031 46.609375 -27.820312 46.609375 -23.28125 L 46.609375 -19.796875 Z M 16.015625 -27.453125 L 34.59375 -27.453125 C 34.59375 -29.273438 34.253906 -30.945312 33.578125 -32.46875 C 32.898438 -34 31.878906 -35.203125 30.515625 -36.078125 C 29.148438 -36.960938 27.441406 -37.40625 25.390625 -37.40625 C 23.398438 -37.40625 21.707031 -36.925781 20.3125 -35.96875 C 18.914062 -35.019531 17.847656 -33.78125 17.109375 -32.25 C 16.378906 -30.726562 16.015625 -29.128906 16.015625 -27.453125 Z M 16.015625 -27.453125 "/></g></g></g><g fill="#ffffff" fill-opacity="1"><g transform="translate(331.326271, 397.551456)"><g><path d="M 25.046875 0.875 C 20.578125 0.875 16.691406 -0.078125 13.390625 -1.984375 C 10.097656 -3.890625 7.546875 -6.585938 5.734375 -10.078125 C 3.929688 -13.566406 3.03125 -17.703125 3.03125 -22.484375 C 3.03125 -27.265625 3.929688 -31.445312 5.734375 -35.03125 C 7.546875 -38.613281 10.097656 -41.398438 13.390625 -43.390625 C 16.691406 -45.390625 20.585938 -46.390625 25.078125 -46.390625 C 29.566406 -46.390625 33.453125 -45.410156 36.734375 -43.453125 C 40.023438 -41.503906 42.566406 -38.738281 44.359375 -35.15625 C 46.148438 -31.582031 47.046875 -27.359375 47.046875 -22.484375 C 47.046875 -17.910156 46.171875 -13.867188 44.421875 -10.359375 C 42.679688 -6.859375 40.175781 -4.109375 36.90625 -2.109375 C 33.632812 -0.117188 29.679688 0.875 25.046875 0.875 Z M 25.078125 -8.671875 C 27.335938 -8.671875 29.15625 -9.328125 30.53125 -10.640625 C 31.914062 -11.960938 32.921875 -13.703125 33.546875 -15.859375 C 34.179688 -18.015625 34.5 -20.367188 34.5 -22.921875 C 34.5 -25.328125 34.210938 -27.601562 33.640625 -29.75 C 33.066406 -31.894531 32.09375 -33.625 30.71875 -34.9375 C 29.34375 -36.257812 27.460938 -36.921875 25.078125 -36.921875 C 22.828125 -36.921875 21.003906 -36.296875 19.609375 -35.046875 C 18.210938 -33.804688 17.191406 -32.117188 16.546875 -29.984375 C 15.898438 -27.859375 15.578125 -25.503906 15.578125 -22.921875 C 15.578125 -20.546875 15.867188 -18.265625 16.453125 -16.078125 C 17.046875 -13.898438 18.03125 -12.117188 19.40625 -10.734375 C 20.78125 -9.359375 22.671875 -8.671875 25.078125 -8.671875 Z M 25.078125 -8.671875 "/></g></g></g><g fill="#ffffff" fill-opacity="1"><g transform="translate(381.409139, 397.551456)"><g><path d="M 5.5 0 L 5.5 -45.5 L 18.125 -45.5 L 18.125 -39.078125 C 18.832031 -40.191406 19.75 -41.269531 20.875 -42.3125 C 22.007812 -43.351562 23.441406 -44.210938 25.171875 -44.890625 C 26.898438 -45.566406 28.953125 -45.90625 31.328125 -45.90625 C 34.117188 -45.90625 36.722656 -45.359375 39.140625 -44.265625 C 41.566406 -43.179688 43.523438 -41.472656 45.015625 -39.140625 C 46.515625 -36.804688 47.265625 -33.765625 47.265625 -30.015625 L 47.265625 0 L 34.421875 0 L 34.421875 -28.421875 C 34.421875 -30.890625 33.6875 -32.738281 32.21875 -33.96875 C 30.75 -35.207031 28.957031 -35.828125 26.84375 -35.828125 C 25.4375 -35.828125 24.078125 -35.578125 22.765625 -35.078125 C 21.460938 -34.578125 20.398438 -33.828125 19.578125 -32.828125 C 18.753906 -31.828125 18.34375 -30.597656 18.34375 -29.140625 L 18.34375 0 Z M 5.5 0 "/></g></g></g><g fill="#ffffff" fill-opacity="1"><g transform="translate(148.810136, 106.700023)"><g><path d="M 2.265625 0 L 2.265625 -20.25 L 9.71875 -20.25 C 11.1875 -20.25 12.503906 -19.992188 13.671875 -19.484375 C 14.835938 -18.972656 15.757812 -18.222656 16.4375 -17.234375 C 17.113281 -16.242188 17.453125 -15.035156 17.453125 -13.609375 C 17.453125 -12.265625 17.15625 -11.113281 16.5625 -10.15625 C 15.96875 -9.207031 15.128906 -8.476562 14.046875 -7.96875 C 12.972656 -7.46875 11.707031 -7.21875 10.25 -7.21875 L 6.390625 -7.21875 L 6.390625 0 Z M 6.34375 -10.390625 L 10.140625 -10.390625 C 11.160156 -10.390625 12 -10.71875 12.65625 -11.375 C 13.3125 -12.03125 13.640625 -12.84375 13.640625 -13.8125 C 13.640625 -14.820312 13.289062 -15.625 12.59375 -16.21875 C 11.90625 -16.8125 11.066406 -17.109375 10.078125 -17.109375 L 6.34375 -17.109375 Z M 6.34375 -10.390625 "/></g></g></g><g fill="#ffffff" fill-opacity="1"><g transform="translate(167.077641, 106.700023)"><g><path d="M 7.078125 0.28125 C 6.410156 0.28125 5.75 0.175781 5.09375 -0.03125 C 4.445312 -0.238281 3.859375 -0.539062 3.328125 -0.9375 C 2.796875 -1.34375 2.367188 -1.835938 2.046875 -2.421875 C 1.722656 -3.003906 1.5625 -3.6875 1.5625 -4.46875 L 1.5625 -14.46875 L 5.65625 -14.46875 L 5.65625 -4.984375 C 5.65625 -4.304688 5.875 -3.753906 6.3125 -3.328125 C 6.75 -2.898438 7.394531 -2.6875 8.25 -2.6875 C 9.050781 -2.6875 9.6875 -2.894531 10.15625 -3.3125 C 10.625 -3.726562 10.859375 -4.304688 10.859375 -5.046875 L 10.859375 -14.46875 L 14.90625 -14.46875 L 14.90625 0 L 11.828125 0 L 11.359375 -2.875 C 11.191406 -2.019531 10.875 -1.363281 10.40625 -0.90625 C 9.945312 -0.457031 9.421875 -0.148438 8.828125 0.015625 C 8.234375 0.191406 7.648438 0.28125 7.078125 0.28125 Z M 7.078125 0.28125 "/></g></g></g><g fill="#ffffff" fill-opacity="1"><g transform="translate(183.55339, 106.700023)"><g><path d="M 1.75 0 L 1.75 -14.46875 L 5.6875 -14.46875 L 5.6875 -11.046875 C 5.914062 -11.785156 6.242188 -12.429688 6.671875 -12.984375 C 7.097656 -13.535156 7.613281 -13.96875 8.21875 -14.28125 C 8.820312 -14.59375 9.507812 -14.75 10.28125 -14.75 C 10.40625 -14.75 10.523438 -14.742188 10.640625 -14.734375 C 10.765625 -14.722656 10.851562 -14.703125 10.90625 -14.671875 L 10.90625 -10.78125 C 10.820312 -10.820312 10.722656 -10.84375 10.609375 -10.84375 C 10.492188 -10.851562 10.390625 -10.863281 10.296875 -10.875 C 9.492188 -10.9375 8.804688 -10.910156 8.234375 -10.796875 C 7.660156 -10.691406 7.195312 -10.503906 6.84375 -10.234375 C 6.488281 -9.960938 6.234375 -9.628906 6.078125 -9.234375 C 5.921875 -8.847656 5.84375 -8.410156 5.84375 -7.921875 L 5.84375 0 Z M 1.75 0 "/></g></g></g><g fill="#ffffff" fill-opacity="1"><g transform="translate(194.933841, 106.700023)"><g><path d="M 8.453125 4.78125 C 5.878906 4.78125 3.921875 4.453125 2.578125 3.796875 C 1.242188 3.148438 0.578125 2.296875 0.578125 1.234375 C 0.578125 0.734375 0.707031 0.316406 0.96875 -0.015625 C 1.226562 -0.347656 1.53125 -0.613281 1.875 -0.8125 C 2.226562 -1.019531 2.550781 -1.175781 2.84375 -1.28125 C 3.144531 -1.382812 3.328125 -1.457031 3.390625 -1.5 C 3.234375 -1.582031 3.015625 -1.703125 2.734375 -1.859375 C 2.460938 -2.023438 2.207031 -2.25 1.96875 -2.53125 C 1.726562 -2.820312 1.609375 -3.195312 1.609375 -3.65625 C 1.609375 -4.164062 1.851562 -4.640625 2.34375 -5.078125 C 2.832031 -5.515625 3.578125 -5.816406 4.578125 -5.984375 C 3.628906 -6.429688 2.90625 -7.035156 2.40625 -7.796875 C 1.914062 -8.566406 1.671875 -9.351562 1.671875 -10.15625 C 1.671875 -11.113281 1.96875 -11.929688 2.5625 -12.609375 C 3.15625 -13.296875 3.96875 -13.816406 5 -14.171875 C 6.03125 -14.523438 7.203125 -14.703125 8.515625 -14.703125 C 9.515625 -14.703125 10.328125 -14.59375 10.953125 -14.375 C 11.585938 -14.164062 12.175781 -13.894531 12.71875 -13.5625 C 12.9375 -13.644531 13.222656 -13.753906 13.578125 -13.890625 C 13.929688 -14.023438 14.3125 -14.175781 14.71875 -14.34375 C 15.132812 -14.507812 15.535156 -14.671875 15.921875 -14.828125 C 16.316406 -14.992188 16.671875 -15.144531 16.984375 -15.28125 L 16.96875 -12.109375 L 14.46875 -11.703125 C 14.5625 -11.453125 14.632812 -11.179688 14.6875 -10.890625 C 14.75 -10.597656 14.78125 -10.359375 14.78125 -10.171875 C 14.78125 -9.335938 14.535156 -8.554688 14.046875 -7.828125 C 13.554688 -7.097656 12.820312 -6.507812 11.84375 -6.0625 C 10.875 -5.613281 9.671875 -5.390625 8.234375 -5.390625 C 8.054688 -5.390625 7.816406 -5.394531 7.515625 -5.40625 C 7.222656 -5.414062 6.984375 -5.429688 6.796875 -5.453125 C 6.253906 -5.421875 5.878906 -5.347656 5.671875 -5.234375 C 5.460938 -5.117188 5.359375 -4.988281 5.359375 -4.84375 C 5.359375 -4.625 5.566406 -4.476562 5.984375 -4.40625 C 6.410156 -4.332031 7.046875 -4.269531 7.890625 -4.21875 C 8.191406 -4.195312 8.609375 -4.171875 9.140625 -4.140625 C 9.671875 -4.117188 10.257812 -4.082031 10.90625 -4.03125 C 12.675781 -3.90625 14 -3.46875 14.875 -2.71875 C 15.75 -1.96875 16.1875 -1.023438 16.1875 0.109375 C 16.1875 1.460938 15.539062 2.578125 14.25 3.453125 C 12.96875 4.335938 11.035156 4.78125 8.453125 4.78125 Z M 9.109375 2.5 C 10.253906 2.5 11.066406 2.359375 11.546875 2.078125 C 12.035156 1.804688 12.28125 1.40625 12.28125 0.875 C 12.28125 0.4375 12.09375 0.0820312 11.71875 -0.1875 C 11.34375 -0.46875 10.796875 -0.628906 10.078125 -0.671875 L 6.765625 -0.890625 C 6.335938 -0.910156 5.957031 -0.84375 5.625 -0.6875 C 5.289062 -0.539062 5.03125 -0.335938 4.84375 -0.078125 C 4.664062 0.179688 4.578125 0.457031 4.578125 0.75 C 4.578125 1.363281 4.945312 1.804688 5.6875 2.078125 C 6.425781 2.359375 7.566406 2.5 9.109375 2.5 Z M 8.34375 -7.671875 C 9.113281 -7.671875 9.734375 -7.882812 10.203125 -8.3125 C 10.679688 -8.738281 10.921875 -9.3125 10.921875 -10.03125 C 10.921875 -10.789062 10.679688 -11.398438 10.203125 -11.859375 C 9.734375 -12.316406 9.113281 -12.546875 8.34375 -12.546875 C 7.582031 -12.546875 6.957031 -12.316406 6.46875 -11.859375 C 5.988281 -11.398438 5.75 -10.789062 5.75 -10.03125 C 5.75 -9.3125 5.976562 -8.738281 6.4375 -8.3125 C 6.90625 -7.882812 7.539062 -7.671875 8.34375 -7.671875 Z M 8.34375 -7.671875 "/></g></g></g><g fill="#ffffff" fill-opacity="1"><g transform="translate(212.515444, 106.700023)"><g><path d="M 5.109375 -6.296875 C 5.097656 -5.554688 5.210938 -4.914062 5.453125 -4.375 C 5.703125 -3.832031 6.054688 -3.410156 6.515625 -3.109375 C 6.972656 -2.816406 7.53125 -2.671875 8.1875 -2.671875 C 8.882812 -2.671875 9.5 -2.816406 10.03125 -3.109375 C 10.5625 -3.410156 10.925781 -3.90625 11.125 -4.59375 L 14.8125 -4.59375 C 14.65625 -3.5625 14.242188 -2.679688 13.578125 -1.953125 C 12.921875 -1.234375 12.125 -0.679688 11.1875 -0.296875 C 10.257812 0.0859375 9.289062 0.28125 8.28125 0.28125 C 6.851562 0.28125 5.597656 -0.0195312 4.515625 -0.625 C 3.429688 -1.226562 2.582031 -2.078125 1.96875 -3.171875 C 1.363281 -4.273438 1.0625 -5.570312 1.0625 -7.0625 C 1.0625 -8.507812 1.335938 -9.8125 1.890625 -10.96875 C 2.441406 -12.132812 3.238281 -13.054688 4.28125 -13.734375 C 5.332031 -14.410156 6.597656 -14.75 8.078125 -14.75 C 9.554688 -14.75 10.796875 -14.4375 11.796875 -13.8125 C 12.796875 -13.195312 13.550781 -12.335938 14.0625 -11.234375 C 14.570312 -10.128906 14.828125 -8.851562 14.828125 -7.40625 L 14.828125 -6.296875 Z M 5.09375 -8.734375 L 11 -8.734375 C 11 -9.316406 10.890625 -9.847656 10.671875 -10.328125 C 10.460938 -10.816406 10.140625 -11.203125 9.703125 -11.484375 C 9.273438 -11.765625 8.734375 -11.90625 8.078125 -11.90625 C 7.441406 -11.90625 6.898438 -11.75 6.453125 -11.4375 C 6.015625 -11.132812 5.675781 -10.738281 5.4375 -10.25 C 5.207031 -9.769531 5.09375 -9.265625 5.09375 -8.734375 Z M 5.09375 -8.734375 "/></g></g></g><g fill="#ffffff" fill-opacity="1"><g transform="translate(228.431269, 106.700023)"><g><path d="M 7.96875 0.28125 C 6.550781 0.28125 5.316406 -0.0195312 4.265625 -0.625 C 3.210938 -1.238281 2.398438 -2.097656 1.828125 -3.203125 C 1.253906 -4.316406 0.96875 -5.632812 0.96875 -7.15625 C 0.96875 -8.675781 1.253906 -10.003906 1.828125 -11.140625 C 2.398438 -12.285156 3.210938 -13.171875 4.265625 -13.796875 C 5.316406 -14.429688 6.554688 -14.75 7.984375 -14.75 C 9.410156 -14.75 10.644531 -14.4375 11.6875 -13.8125 C 12.738281 -13.195312 13.546875 -12.320312 14.109375 -11.1875 C 14.679688 -10.050781 14.96875 -8.707031 14.96875 -7.15625 C 14.96875 -5.695312 14.6875 -4.410156 14.125 -3.296875 C 13.570312 -2.179688 12.773438 -1.304688 11.734375 -0.671875 C 10.691406 -0.0351562 9.4375 0.28125 7.96875 0.28125 Z M 7.984375 -2.765625 C 8.703125 -2.765625 9.28125 -2.972656 9.71875 -3.390625 C 10.15625 -3.804688 10.472656 -4.359375 10.671875 -5.046875 C 10.867188 -5.734375 10.96875 -6.484375 10.96875 -7.296875 C 10.96875 -8.054688 10.878906 -8.773438 10.703125 -9.453125 C 10.523438 -10.140625 10.210938 -10.691406 9.765625 -11.109375 C 9.328125 -11.535156 8.734375 -11.75 7.984375 -11.75 C 7.265625 -11.75 6.679688 -11.550781 6.234375 -11.15625 C 5.796875 -10.757812 5.472656 -10.222656 5.265625 -9.546875 C 5.054688 -8.867188 4.953125 -8.117188 4.953125 -7.296875 C 4.953125 -6.535156 5.046875 -5.804688 5.234375 -5.109375 C 5.421875 -4.421875 5.734375 -3.859375 6.171875 -3.421875 C 6.609375 -2.984375 7.210938 -2.765625 7.984375 -2.765625 Z M 7.984375 -2.765625 "/></g></g></g><g fill="#ffffff" fill-opacity="1"><g transform="translate(244.3611, 106.700023)"><g><path d="M 1.75 0 L 1.75 -14.46875 L 5.765625 -14.46875 L 5.765625 -12.4375 C 5.992188 -12.789062 6.285156 -13.128906 6.640625 -13.453125 C 7.003906 -13.785156 7.457031 -14.0625 8 -14.28125 C 8.550781 -14.5 9.207031 -14.609375 9.96875 -14.609375 C 10.851562 -14.609375 11.679688 -14.429688 12.453125 -14.078125 C 13.222656 -13.734375 13.84375 -13.191406 14.3125 -12.453125 C 14.789062 -11.710938 15.03125 -10.742188 15.03125 -9.546875 L 15.03125 0 L 10.953125 0 L 10.953125 -9.046875 C 10.953125 -9.828125 10.71875 -10.410156 10.25 -10.796875 C 9.78125 -11.191406 9.210938 -11.390625 8.546875 -11.390625 C 8.097656 -11.390625 7.664062 -11.3125 7.25 -11.15625 C 6.832031 -11 6.492188 -10.757812 6.234375 -10.4375 C 5.972656 -10.125 5.84375 -9.734375 5.84375 -9.265625 L 5.84375 0 Z M 1.75 0 "/></g></g></g><g fill="#ffffff" fill-opacity="1"><g transform="translate(148.810136, 135.652624)"><g><path d="M 1.921875 -14.5 L 3.8125 -14.5 L 3.8125 -1.65625 L 10.671875 -1.65625 L 10.671875 0 L 1.921875 0 Z M 1.921875 -14.5 "/></g></g></g><g fill="#ffffff" fill-opacity="1"><g transform="translate(160.382642, 135.652624)"><g><path d="M 1.921875 -14.5 L 3.8125 -14.5 L 3.8125 -1.65625 L 10.671875 -1.65625 L 10.671875 0 L 1.921875 0 Z M 1.921875 -14.5 "/></g></g></g><g fill="#ffffff" fill-opacity="1"><g transform="translate(171.955147, 135.652624)"><g><path d="M 7.25 -14.6875 C 8.269531 -14.6875 9.171875 -14.472656 9.953125 -14.046875 C 10.742188 -13.628906 11.378906 -13.066406 11.859375 -12.359375 C 12.347656 -11.648438 12.632812 -10.867188 12.71875 -10.015625 L 10.75 -10.015625 C 10.632812 -10.585938 10.425781 -11.101562 10.125 -11.5625 C 9.832031 -12.03125 9.441406 -12.398438 8.953125 -12.671875 C 8.460938 -12.941406 7.878906 -13.078125 7.203125 -13.078125 C 6.328125 -13.078125 5.582031 -12.867188 4.96875 -12.453125 C 4.363281 -12.046875 3.90625 -11.414062 3.59375 -10.5625 C 3.289062 -9.707031 3.140625 -8.613281 3.140625 -7.28125 C 3.140625 -5.257812 3.484375 -3.773438 4.171875 -2.828125 C 4.867188 -1.878906 5.878906 -1.40625 7.203125 -1.40625 C 7.878906 -1.40625 8.460938 -1.550781 8.953125 -1.84375 C 9.441406 -2.132812 9.832031 -2.519531 10.125 -3 C 10.425781 -3.476562 10.632812 -4 10.75 -4.5625 L 12.71875 -4.5625 C 12.644531 -3.945312 12.476562 -3.351562 12.21875 -2.78125 C 11.96875 -2.207031 11.617188 -1.695312 11.171875 -1.25 C 10.722656 -0.800781 10.171875 -0.445312 9.515625 -0.1875 C 8.867188 0.0703125 8.113281 0.203125 7.25 0.203125 C 5.945312 0.203125 4.832031 -0.09375 3.90625 -0.6875 C 2.988281 -1.28125 2.285156 -2.132812 1.796875 -3.25 C 1.316406 -4.375 1.078125 -5.722656 1.078125 -7.296875 C 1.078125 -8.867188 1.316406 -10.203125 1.796875 -11.296875 C 2.285156 -12.398438 2.988281 -13.238281 3.90625 -13.8125 C 4.820312 -14.394531 5.9375 -14.6875 7.25 -14.6875 Z M 7.25 -14.6875 "/></g></g></g><g fill="#ffffff" fill-opacity="1"><g transform="translate(81.000002, 520.483782)"><g><path d="M 7.125 -63.640625 C 7.445312 -63.640625 8.347656 -63.640625 9.828125 -63.640625 C 11.316406 -63.640625 13.066406 -63.640625 15.078125 -63.640625 C 17.085938 -63.640625 19.09375 -63.628906 21.09375 -63.609375 C 23.101562 -63.597656 24.785156 -63.578125 26.140625 -63.546875 C 33.859375 -63.367188 40.148438 -61.988281 45.015625 -59.40625 C 49.890625 -56.820312 53.460938 -53.210938 55.734375 -48.578125 C 58.003906 -43.941406 59.140625 -38.457031 59.140625 -32.125 C 59.140625 -25.519531 57.9375 -19.816406 55.53125 -15.015625 C 53.125 -10.222656 49.445312 -6.519531 44.5 -3.90625 C 39.5625 -1.300781 33.296875 0 25.703125 0 L 7.125 0 Z M 20.0625 -53.25 L 20.0625 -10.390625 L 25.96875 -10.390625 C 29.601562 -10.390625 32.910156 -11.09375 35.890625 -12.5 C 38.867188 -13.90625 41.25 -16.207031 43.03125 -19.40625 C 44.820312 -22.601562 45.71875 -26.875 45.71875 -32.21875 C 45.71875 -37.175781 44.925781 -41.203125 43.34375 -44.296875 C 41.757812 -47.390625 39.5 -49.65625 36.5625 -51.09375 C 33.632812 -52.53125 30.160156 -53.25 26.140625 -53.25 Z M 20.0625 -53.25 "/></g></g></g><g fill="#ffffff" fill-opacity="1"><g transform="translate(144.373749, 520.483782)"><g><path d="M 25.046875 0.875 C 20.578125 0.875 16.691406 -0.078125 13.390625 -1.984375 C 10.097656 -3.890625 7.546875 -6.585938 5.734375 -10.078125 C 3.929688 -13.566406 3.03125 -17.703125 3.03125 -22.484375 C 3.03125 -27.265625 3.929688 -31.445312 5.734375 -35.03125 C 7.546875 -38.613281 10.097656 -41.398438 13.390625 -43.390625 C 16.691406 -45.390625 20.585938 -46.390625 25.078125 -46.390625 C 29.566406 -46.390625 33.453125 -45.410156 36.734375 -43.453125 C 40.023438 -41.503906 42.566406 -38.738281 44.359375 -35.15625 C 46.148438 -31.582031 47.046875 -27.359375 47.046875 -22.484375 C 47.046875 -17.910156 46.171875 -13.867188 44.421875 -10.359375 C 42.679688 -6.859375 40.175781 -4.109375 36.90625 -2.109375 C 33.632812 -0.117188 29.679688 0.875 25.046875 0.875 Z M 25.078125 -8.671875 C 27.335938 -8.671875 29.15625 -9.328125 30.53125 -10.640625 C 31.914062 -11.960938 32.921875 -13.703125 33.546875 -15.859375 C 34.179688 -18.015625 34.5 -20.367188 34.5 -22.921875 C 34.5 -25.328125 34.210938 -27.601562 33.640625 -29.75 C 33.066406 -31.894531 32.09375 -33.625 30.71875 -34.9375 C 29.34375 -36.257812 27.460938 -36.921875 25.078125 -36.921875 C 22.828125 -36.921875 21.003906 -36.296875 19.609375 -35.046875 C 18.210938 -33.804688 17.191406 -32.117188 16.546875 -29.984375 C 15.898438 -27.859375 15.578125 -25.503906 15.578125 -22.921875 C 15.578125 -20.546875 15.867188 -18.265625 16.453125 -16.078125 C 17.046875 -13.898438 18.03125 -12.117188 19.40625 -10.734375 C 20.78125 -9.359375 22.671875 -8.671875 25.078125 -8.671875 Z M 25.078125 -8.671875 "/></g></g></g><g fill="#ffffff" fill-opacity="1"><g transform="translate(194.456607, 520.483782)"><g><path d="M 25 -46.390625 C 28.8125 -46.390625 32.101562 -45.609375 34.875 -44.046875 C 37.644531 -42.492188 39.828125 -40.394531 41.421875 -37.75 C 43.023438 -35.113281 43.945312 -32.164062 44.1875 -28.90625 L 33.484375 -28.90625 C 33.285156 -30.113281 32.863281 -31.3125 32.21875 -32.5 C 31.570312 -33.6875 30.660156 -34.664062 29.484375 -35.4375 C 28.304688 -36.21875 26.835938 -36.609375 25.078125 -36.609375 C 22.085938 -36.609375 19.660156 -35.457031 17.796875 -33.15625 C 15.929688 -30.851562 15 -27.351562 15 -22.65625 C 15 -18.226562 15.910156 -14.71875 17.734375 -12.125 C 19.554688 -9.53125 22.09375 -8.234375 25.34375 -8.234375 C 27.070312 -8.234375 28.515625 -8.65625 29.671875 -9.5 C 30.835938 -10.351562 31.742188 -11.375 32.390625 -12.5625 C 33.035156 -13.75 33.445312 -14.859375 33.625 -15.890625 L 44.046875 -15.890625 C 43.847656 -12.742188 42.941406 -9.898438 41.328125 -7.359375 C 39.710938 -4.828125 37.515625 -2.820312 34.734375 -1.34375 C 31.960938 0.132812 28.71875 0.875 25 0.875 C 20.769531 0.875 17 -0.0625 13.6875 -1.9375 C 10.375 -3.8125 7.769531 -6.5 5.875 -10 C 3.976562 -13.507812 3.03125 -17.703125 3.03125 -22.578125 C 3.03125 -27.273438 3.941406 -31.410156 5.765625 -34.984375 C 7.585938 -38.566406 10.144531 -41.363281 13.4375 -43.375 C 16.738281 -45.382812 20.59375 -46.390625 25 -46.390625 Z M 25 -46.390625 "/></g></g></g><g fill="#ffffff" fill-opacity="1"><g transform="translate(241.986912, 520.483782)"><g><path d="M 22.265625 0.875 C 20.148438 0.875 18.070312 0.550781 16.03125 -0.09375 C 14 -0.738281 12.144531 -1.691406 10.46875 -2.953125 C 8.800781 -4.210938 7.457031 -5.765625 6.4375 -7.609375 C 5.425781 -9.460938 4.921875 -11.601562 4.921875 -14.03125 L 4.921875 -45.5 L 17.78125 -45.5 L 17.78125 -15.671875 C 17.78125 -13.554688 18.46875 -11.820312 19.84375 -10.46875 C 21.226562 -9.125 23.253906 -8.453125 25.921875 -8.453125 C 28.441406 -8.453125 30.441406 -9.101562 31.921875 -10.40625 C 33.410156 -11.707031 34.15625 -13.535156 34.15625 -15.890625 L 34.15625 -45.5 L 46.875 -45.5 L 46.875 0 L 37.1875 0 L 35.6875 -9.015625 C 35.15625 -6.347656 34.164062 -4.300781 32.71875 -2.875 C 31.269531 -1.457031 29.613281 -0.476562 27.75 0.0625 C 25.882812 0.601562 24.054688 0.875 22.265625 0.875 Z M 22.265625 0.875 "/></g></g></g><g fill="#ffffff" fill-opacity="1"><g transform="translate(293.786152, 520.483782)"><g><path d="M 5.5 0 L 5.5 -45.5 L 18.09375 -45.5 L 18.09375 -39.078125 C 19.46875 -41.078125 21.320312 -42.796875 23.65625 -44.234375 C 25.988281 -45.671875 28.929688 -46.390625 32.484375 -46.390625 C 34.035156 -46.390625 35.617188 -46.109375 37.234375 -45.546875 C 38.847656 -44.992188 40.363281 -44.179688 41.78125 -43.109375 C 43.207031 -42.035156 44.359375 -40.691406 45.234375 -39.078125 C 46.703125 -41.160156 48.628906 -42.898438 51.015625 -44.296875 C 53.410156 -45.691406 56.078125 -46.390625 59.015625 -46.390625 C 60.710938 -46.390625 62.429688 -46.109375 64.171875 -45.546875 C 65.921875 -44.992188 67.53125 -44.082031 69 -42.8125 C 70.46875 -41.550781 71.648438 -39.875 72.546875 -37.78125 C 73.441406 -35.6875 73.890625 -33.097656 73.890625 -30.015625 L 73.890625 0 L 61.03125 0 L 61.03125 -28.421875 C 61.03125 -30.242188 60.671875 -31.703125 59.953125 -32.796875 C 59.234375 -33.898438 58.320312 -34.691406 57.21875 -35.171875 C 56.125 -35.660156 54.960938 -35.90625 53.734375 -35.90625 C 52.585938 -35.90625 51.425781 -35.675781 50.25 -35.21875 C 49.082031 -34.769531 48.085938 -34.046875 47.265625 -33.046875 C 46.441406 -32.046875 46.03125 -30.742188 46.03125 -29.140625 L 46.03125 0 L 33.21875 0 L 33.21875 -29.578125 C 33.21875 -30.953125 32.851562 -32.109375 32.125 -33.046875 C 31.394531 -33.984375 30.476562 -34.691406 29.375 -35.171875 C 28.269531 -35.660156 27.148438 -35.90625 26.015625 -35.90625 C 24.835938 -35.90625 23.660156 -35.660156 22.484375 -35.171875 C 21.316406 -34.691406 20.332031 -33.945312 19.53125 -32.9375 C 18.738281 -31.925781 18.34375 -30.660156 18.34375 -29.140625 L 18.34375 0 Z M 5.5 0 "/></g></g></g><g fill="#ffffff" fill-opacity="1"><g transform="translate(372.607239, 520.483782)"><g><path d="M 16.0625 -19.796875 C 16.03125 -17.484375 16.394531 -15.46875 17.15625 -13.75 C 17.925781 -12.03125 19.035156 -10.707031 20.484375 -9.78125 C 21.929688 -8.863281 23.6875 -8.40625 25.75 -8.40625 C 27.945312 -8.40625 29.875 -8.875 31.53125 -9.8125 C 33.1875 -10.75 34.335938 -12.289062 34.984375 -14.4375 L 46.5625 -14.4375 C 46.0625 -11.207031 44.773438 -8.445312 42.703125 -6.15625 C 40.640625 -3.875 38.140625 -2.128906 35.203125 -0.921875 C 32.273438 0.273438 29.222656 0.875 26.046875 0.875 C 21.554688 0.875 17.601562 -0.0664062 14.1875 -1.953125 C 10.769531 -3.847656 8.109375 -6.523438 6.203125 -9.984375 C 4.296875 -13.453125 3.34375 -17.53125 3.34375 -22.21875 C 3.34375 -26.769531 4.207031 -30.867188 5.9375 -34.515625 C 7.664062 -38.171875 10.179688 -41.0625 13.484375 -43.1875 C 16.785156 -45.320312 20.753906 -46.390625 25.390625 -46.390625 C 30.023438 -46.390625 33.921875 -45.410156 37.078125 -43.453125 C 40.234375 -41.503906 42.609375 -38.789062 44.203125 -35.3125 C 45.804688 -31.832031 46.609375 -27.820312 46.609375 -23.28125 L 46.609375 -19.796875 Z M 16.015625 -27.453125 L 34.59375 -27.453125 C 34.59375 -29.273438 34.253906 -30.945312 33.578125 -32.46875 C 32.898438 -34 31.878906 -35.203125 30.515625 -36.078125 C 29.148438 -36.960938 27.441406 -37.40625 25.390625 -37.40625 C 23.398438 -37.40625 21.707031 -36.925781 20.3125 -35.96875 C 18.914062 -35.019531 17.847656 -33.78125 17.109375 -32.25 C 16.378906 -30.726562 16.015625 -29.128906 16.015625 -27.453125 Z M 16.015625 -27.453125 "/></g></g></g><g fill="#ffffff" fill-opacity="1"><g transform="translate(422.646111, 520.483782)"><g><path d="M 5.5 0 L 5.5 -45.5 L 18.125 -45.5 L 18.125 -39.078125 C 18.832031 -40.191406 19.75 -41.269531 20.875 -42.3125 C 22.007812 -43.351562 23.441406 -44.210938 25.171875 -44.890625 C 26.898438 -45.566406 28.953125 -45.90625 31.328125 -45.90625 C 34.117188 -45.90625 36.722656 -45.359375 39.140625 -44.265625 C 41.566406 -43.179688 43.523438 -41.472656 45.015625 -39.140625 C 46.515625 -36.804688 47.265625 -33.765625 47.265625 -30.015625 L 47.265625 0 L 34.421875 0 L 34.421875 -28.421875 C 34.421875 -30.890625 33.6875 -32.738281 32.21875 -33.96875 C 30.75 -35.207031 28.957031 -35.828125 26.84375 -35.828125 C 25.4375 -35.828125 24.078125 -35.578125 22.765625 -35.078125 C 21.460938 -34.578125 20.398438 -33.828125 19.578125 -32.828125 C 18.753906 -31.828125 18.34375 -30.597656 18.34375 -29.140625 L 18.34375 0 Z M 5.5 0 "/></g></g></g><g fill="#ffffff" fill-opacity="1"><g transform="translate(474.841424, 520.483782)"><g><path d="M 33.21875 -36.578125 L 23.109375 -36.578125 L 23.1875 -12.328125 C 23.1875 -11.210938 23.328125 -10.378906 23.609375 -9.828125 C 23.890625 -9.285156 24.328125 -8.929688 24.921875 -8.765625 C 25.523438 -8.609375 26.296875 -8.53125 27.234375 -8.53125 L 33.359375 -8.53125 L 33.359375 -0.609375 C 32.773438 -0.347656 31.859375 -0.101562 30.609375 0.125 C 29.359375 0.363281 27.617188 0.484375 25.390625 0.484375 C 21.398438 0.484375 18.3125 -0.0234375 16.125 -1.046875 C 13.9375 -2.078125 12.414062 -3.515625 11.5625 -5.359375 C 10.71875 -7.210938 10.296875 -9.359375 10.296875 -11.796875 L 10.296875 -36.578125 L 2.90625 -36.578125 L 2.90625 -45.5 L 10.734375 -45.5 L 13.953125 -59.234375 L 23.109375 -59.234375 L 23.109375 -45.546875 L 33.21875 -45.546875 Z M 33.21875 -36.578125 "/></g></g></g><g fill="#ffffff" fill-opacity="1"><g transform="translate(512.029485, 520.483782)"><g><path d="M 18.703125 0.875 C 15.796875 0.875 13.179688 0.332031 10.859375 -0.75 C 8.546875 -1.832031 6.710938 -3.40625 5.359375 -5.46875 C 4.015625 -7.539062 3.34375 -10.0625 3.34375 -13.03125 C 3.34375 -18.007812 5.203125 -21.796875 8.921875 -24.390625 C 12.648438 -26.992188 18.535156 -28.335938 26.578125 -28.421875 L 32.25 -28.515625 L 32.25 -31.25 C 32.25 -33.332031 31.640625 -34.9375 30.421875 -36.0625 C 29.210938 -37.195312 27.332031 -37.75 24.78125 -37.71875 C 22.894531 -37.6875 21.109375 -37.242188 19.421875 -36.390625 C 17.742188 -35.546875 16.59375 -34.066406 15.96875 -31.953125 L 5.28125 -31.953125 C 5.457031 -35.234375 6.410156 -37.9375 8.140625 -40.0625 C 9.867188 -42.195312 12.222656 -43.785156 15.203125 -44.828125 C 18.179688 -45.867188 21.5625 -46.390625 25.34375 -46.390625 C 30.007812 -46.390625 33.75 -45.804688 36.5625 -44.640625 C 39.382812 -43.484375 41.425781 -41.828125 42.6875 -39.671875 C 43.945312 -37.515625 44.578125 -34.957031 44.578125 -32 L 44.578125 0 L 33.84375 0 L 32.78125 -7.828125 C 31.226562 -4.546875 29.285156 -2.273438 26.953125 -1.015625 C 24.617188 0.242188 21.867188 0.875 18.703125 0.875 Z M 23.015625 -7.5625 C 24.191406 -7.5625 25.328125 -7.773438 26.421875 -8.203125 C 27.523438 -8.628906 28.507812 -9.203125 29.375 -9.921875 C 30.238281 -10.640625 30.929688 -11.453125 31.453125 -12.359375 C 31.984375 -13.273438 32.25 -14.21875 32.25 -15.1875 L 32.25 -21.921875 L 27.640625 -21.828125 C 25.492188 -21.796875 23.492188 -21.535156 21.640625 -21.046875 C 19.796875 -20.566406 18.304688 -19.785156 17.171875 -18.703125 C 16.046875 -17.617188 15.484375 -16.148438 15.484375 -14.296875 C 15.484375 -12.191406 16.21875 -10.539062 17.6875 -9.34375 C 19.15625 -8.15625 20.929688 -7.5625 23.015625 -7.5625 Z M 23.015625 -7.5625 "/></g></g></g><g fill="#ffffff" fill-opacity="1"><g transform="translate(562.508425, 520.483782)"><g><path d="M 33.21875 -36.578125 L 23.109375 -36.578125 L 23.1875 -12.328125 C 23.1875 -11.210938 23.328125 -10.378906 23.609375 -9.828125 C 23.890625 -9.285156 24.328125 -8.929688 24.921875 -8.765625 C 25.523438 -8.609375 26.296875 -8.53125 27.234375 -8.53125 L 33.359375 -8.53125 L 33.359375 -0.609375 C 32.773438 -0.347656 31.859375 -0.101562 30.609375 0.125 C 29.359375 0.363281 27.617188 0.484375 25.390625 0.484375 C 21.398438 0.484375 18.3125 -0.0234375 16.125 -1.046875 C 13.9375 -2.078125 12.414062 -3.515625 11.5625 -5.359375 C 10.71875 -7.210938 10.296875 -9.359375 10.296875 -11.796875 L 10.296875 -36.578125 L 2.90625 -36.578125 L 2.90625 -45.5 L 10.734375 -45.5 L 13.953125 -59.234375 L 23.109375 -59.234375 L 23.109375 -45.546875 L 33.21875 -45.546875 Z M 33.21875 -36.578125 "/></g></g></g><g fill="#ffffff" fill-opacity="1"><g transform="translate(599.696486, 520.483782)"><g><path d="M 18.4375 -45.5 L 18.4375 0 L 6.15625 0 L 6.15625 -45.5 Z M 18.578125 -63.59375 L 18.578125 -52.015625 L 6.078125 -52.015625 L 6.078125 -63.59375 Z M 18.578125 -63.59375 "/></g></g></g><g fill="#ffffff" fill-opacity="1"><g transform="translate(624.297823, 520.483782)"><g><path d="M 25.046875 0.875 C 20.578125 0.875 16.691406 -0.078125 13.390625 -1.984375 C 10.097656 -3.890625 7.546875 -6.585938 5.734375 -10.078125 C 3.929688 -13.566406 3.03125 -17.703125 3.03125 -22.484375 C 3.03125 -27.265625 3.929688 -31.445312 5.734375 -35.03125 C 7.546875 -38.613281 10.097656 -41.398438 13.390625 -43.390625 C 16.691406 -45.390625 20.585938 -46.390625 25.078125 -46.390625 C 29.566406 -46.390625 33.453125 -45.410156 36.734375 -43.453125 C 40.023438 -41.503906 42.566406 -38.738281 44.359375 -35.15625 C 46.148438 -31.582031 47.046875 -27.359375 47.046875 -22.484375 C 47.046875 -17.910156 46.171875 -13.867188 44.421875 -10.359375 C 42.679688 -6.859375 40.175781 -4.109375 36.90625 -2.109375 C 33.632812 -0.117188 29.679688 0.875 25.046875 0.875 Z M 25.078125 -8.671875 C 27.335938 -8.671875 29.15625 -9.328125 30.53125 -10.640625 C 31.914062 -11.960938 32.921875 -13.703125 33.546875 -15.859375 C 34.179688 -18.015625 34.5 -20.367188 34.5 -22.921875 C 34.5 -25.328125 34.210938 -27.601562 33.640625 -29.75 C 33.066406 -31.894531 32.09375 -33.625 30.71875 -34.9375 C 29.34375 -36.257812 27.460938 -36.921875 25.078125 -36.921875 C 22.828125 -36.921875 21.003906 -36.296875 19.609375 -35.046875 C 18.210938 -33.804688 17.191406 -32.117188 16.546875 -29.984375 C 15.898438 -27.859375 15.578125 -25.503906 15.578125 -22.921875 C 15.578125 -20.546875 15.867188 -18.265625 16.453125 -16.078125 C 17.046875 -13.898438 18.03125 -12.117188 19.40625 -10.734375 C 20.78125 -9.359375 22.671875 -8.671875 25.078125 -8.671875 Z M 25.078125 -8.671875 "/></g></g></g><g fill="#ffffff" fill-opacity="1"><g transform="translate(674.380671, 520.483782)"><g><path d="M 5.5 0 L 5.5 -45.5 L 18.125 -45.5 L 18.125 -39.078125 C 18.832031 -40.191406 19.75 -41.269531 20.875 -42.3125 C 22.007812 -43.351562 23.441406 -44.210938 25.171875 -44.890625 C 26.898438 -45.566406 28.953125 -45.90625 31.328125 -45.90625 C 34.117188 -45.90625 36.722656 -45.359375 39.140625 -44.265625 C 41.566406 -43.179688 43.523438 -41.472656 45.015625 -39.140625 C 46.515625 -36.804688 47.265625 -33.765625 47.265625 -30.015625 L 47.265625 0 L 34.421875 0 L 34.421875 -28.421875 C 34.421875 -30.890625 33.6875 -32.738281 32.21875 -33.96875 C 30.75 -35.207031 28.957031 -35.828125 26.84375 -35.828125 C 25.4375 -35.828125 24.078125 -35.578125 22.765625 -35.078125 C 21.460938 -34.578125 20.398438 -33.828125 19.578125 -32.828125 C 18.753906 -31.828125 18.34375 -30.597656 18.34375 -29.140625 L 18.34375 0 Z M 5.5 0 "/></g></g></g><g fill="#0a0c0d" fill-opacity="1"><g transform="translate(310.017852, 643.776168)"><g><path d="M 4.96875 0 L 4.96875 -9.59375 C 4.96875 -12.820312 5.566406 -15.613281 6.765625 -17.96875 C 7.972656 -20.332031 9.566406 -22.382812 11.546875 -24.125 C 13.523438 -25.875 15.695312 -27.410156 18.0625 -28.734375 C 20.425781 -30.054688 22.796875 -31.300781 25.171875 -32.46875 C 27.546875 -33.644531 29.722656 -34.828125 31.703125 -36.015625 C 33.679688 -37.203125 35.269531 -38.53125 36.46875 -40 C 37.675781 -41.46875 38.28125 -43.203125 38.28125 -45.203125 C 38.28125 -47.753906 37.394531 -49.832031 35.625 -51.4375 C 33.851562 -53.050781 31.425781 -53.859375 28.34375 -53.859375 C 25.144531 -53.859375 22.429688 -52.9375 20.203125 -51.09375 C 17.972656 -49.25 16.59375 -46.460938 16.0625 -42.734375 L 3.78125 -42.734375 C 3.84375 -46.773438 4.789062 -50.445312 6.625 -53.75 C 8.457031 -57.050781 11.207031 -59.671875 14.875 -61.609375 C 18.539062 -63.546875 23.144531 -64.515625 28.6875 -64.515625 C 33.445312 -64.515625 37.550781 -63.707031 41 -62.09375 C 44.445312 -60.476562 47.109375 -58.234375 48.984375 -55.359375 C 50.859375 -52.484375 51.796875 -49.125 51.796875 -45.28125 C 51.796875 -42.082031 51.207031 -39.320312 50.03125 -37 C 48.863281 -34.6875 47.3125 -32.707031 45.375 -31.0625 C 43.4375 -29.425781 41.304688 -27.988281 38.984375 -26.75 C 36.671875 -25.519531 34.363281 -24.375 32.0625 -23.3125 C 29.757812 -22.257812 27.640625 -21.179688 25.703125 -20.078125 C 23.765625 -18.984375 22.207031 -17.742188 21.03125 -16.359375 C 19.863281 -14.984375 19.28125 -13.328125 19.28125 -11.390625 L 19.28125 -10.828125 L 51.703125 -10.828125 L 51.703125 0 Z M 4.96875 0 "/></g></g></g><g fill="#0a0c0d" fill-opacity="1"><g transform="translate(365.90997, 643.776168)"><g><path d="M 28.421875 -64.515625 C 35.992188 -64.515625 41.960938 -61.691406 46.328125 -56.046875 C 50.703125 -50.398438 52.890625 -42.28125 52.890625 -31.6875 C 52.890625 -21.15625 50.734375 -13.078125 46.421875 -7.453125 C 42.109375 -1.835938 36.109375 0.96875 28.421875 0.96875 C 20.710938 0.96875 14.691406 -1.832031 10.359375 -7.4375 C 6.035156 -13.039062 3.875 -21.109375 3.875 -31.640625 C 3.875 -38.679688 4.867188 -44.648438 6.859375 -49.546875 C 8.859375 -54.453125 11.691406 -58.171875 15.359375 -60.703125 C 19.023438 -63.242188 23.378906 -64.515625 28.421875 -64.515625 Z M 28.421875 -9.546875 C 32.210938 -9.546875 34.988281 -11.238281 36.75 -14.625 C 38.507812 -18.019531 39.390625 -23.691406 39.390625 -31.640625 C 39.390625 -39.765625 38.492188 -45.585938 36.703125 -49.109375 C 34.910156 -52.628906 32.140625 -54.390625 28.390625 -54.390625 C 24.628906 -54.390625 21.832031 -52.613281 20 -49.0625 C 18.164062 -45.519531 17.25 -39.710938 17.25 -31.640625 C 17.25 -23.722656 18.15625 -18.0625 19.96875 -14.65625 C 21.789062 -11.25 24.609375 -9.546875 28.421875 -9.546875 Z M 28.421875 -9.546875 "/></g></g></g><g fill="#0a0c0d" fill-opacity="1"><g transform="translate(422.638267, 643.776168)"><g><path d="M 4.96875 0 L 4.96875 -9.59375 C 4.96875 -12.820312 5.566406 -15.613281 6.765625 -17.96875 C 7.972656 -20.332031 9.566406 -22.382812 11.546875 -24.125 C 13.523438 -25.875 15.695312 -27.410156 18.0625 -28.734375 C 20.425781 -30.054688 22.796875 -31.300781 25.171875 -32.46875 C 27.546875 -33.644531 29.722656 -34.828125 31.703125 -36.015625 C 33.679688 -37.203125 35.269531 -38.53125 36.46875 -40 C 37.675781 -41.46875 38.28125 -43.203125 38.28125 -45.203125 C 38.28125 -47.753906 37.394531 -49.832031 35.625 -51.4375 C 33.851562 -53.050781 31.425781 -53.859375 28.34375 -53.859375 C 25.144531 -53.859375 22.429688 -52.9375 20.203125 -51.09375 C 17.972656 -49.25 16.59375 -46.460938 16.0625 -42.734375 L 3.78125 -42.734375 C 3.84375 -46.773438 4.789062 -50.445312 6.625 -53.75 C 8.457031 -57.050781 11.207031 -59.671875 14.875 -61.609375 C 18.539062 -63.546875 23.144531 -64.515625 28.6875 -64.515625 C 33.445312 -64.515625 37.550781 -63.707031 41 -62.09375 C 44.445312 -60.476562 47.109375 -58.234375 48.984375 -55.359375 C 50.859375 -52.484375 51.796875 -49.125 51.796875 -45.28125 C 51.796875 -42.082031 51.207031 -39.320312 50.03125 -37 C 48.863281 -34.6875 47.3125 -32.707031 45.375 -31.0625 C 43.4375 -29.425781 41.304688 -27.988281 38.984375 -26.75 C 36.671875 -25.519531 34.363281 -24.375 32.0625 -23.3125 C 29.757812 -22.257812 27.640625 -21.179688 25.703125 -20.078125 C 23.765625 -18.984375 22.207031 -17.742188 21.03125 -16.359375 C 19.863281 -14.984375 19.28125 -13.328125 19.28125 -11.390625 L 19.28125 -10.828125 L 51.703125 -10.828125 L 51.703125 0 Z M 4.96875 0 "/></g></g></g><g fill="#0a0c0d" fill-opacity="1"><g transform="translate(478.530376, 643.776168)"><g><path d="M 32.78125 -63.640625 L 45.421875 -63.640625 L 45.421875 -24.859375 L 55.234375 -24.859375 L 55.234375 -14.078125 L 45.421875 -14.078125 L 45.421875 0 L 33.046875 0 L 33.09375 -14.078125 L 3.78125 -14.078125 L 3.78125 -24.640625 Z M 15.671875 -24.859375 L 33.09375 -24.859375 L 33.09375 -48.1875 Z M 15.671875 -24.859375 "/></g></g></g><path fill="#ffffff" d="M 90.953125 101.28125 C 90.261719 104.238281 89.539062 104.875 86.707031 105.515625 C 90.070312 106.105469 90.480469 107.652344 90.925781 109.722656 C 91.628906 106.214844 93.027344 106.035156 95.140625 105.5 C 92.378906 104.84375 91.621094 104.320312 90.953125 101.277344 Z M 90.953125 101.28125 " fill-opacity="1" fill-rule="nonzero"/><path fill="#ffffff" d="M 88.746094 95.988281 C 88.25 98.113281 87.730469 98.570312 85.695312 99.03125 C 88.113281 99.453125 88.40625 100.566406 88.722656 102.054688 C 89.230469 99.535156 90.234375 99.402344 91.753906 99.023438 C 89.769531 98.550781 89.222656 98.175781 88.742188 95.988281 Z M 88.746094 95.988281 " fill-opacity="1" fill-rule="nonzero"/><path fill="#ffffff" d="M 85.003906 100.34375 C 84.644531 101.886719 84.265625 102.21875 82.789062 102.554688 C 84.542969 102.859375 84.757812 103.667969 84.988281 104.75 C 85.355469 102.917969 86.085938 102.824219 87.1875 102.546875 C 85.75 102.203125 85.351562 101.929688 85.003906 100.34375 Z M 85.003906 100.34375 " fill-opacity="1" fill-rule="nonzero"/><path fill="#ffffff" d="M 123.546875 101.28125 C 124.238281 104.238281 124.960938 104.875 127.792969 105.515625 C 124.429688 106.105469 124.019531 107.652344 123.578125 109.722656 C 122.871094 106.214844 121.472656 106.035156 119.359375 105.5 C 122.121094 104.84375 122.878906 104.320312 123.546875 101.277344 Z M 123.546875 101.28125 " fill-opacity="1" fill-rule="nonzero"/><path fill="#ffffff" d="M 125.753906 95.988281 C 126.25 98.113281 126.769531 98.570312 128.804688 99.03125 C 126.386719 99.453125 126.09375 100.566406 125.777344 102.054688 C 125.269531 99.535156 124.265625 99.402344 122.746094 99.023438 C 124.730469 98.550781 125.277344 98.175781 125.757812 95.988281 Z M 125.753906 95.988281 " fill-opacity="1" fill-rule="nonzero"/><path fill="#ffffff" d="M 129.496094 100.34375 C 129.859375 101.886719 130.234375 102.21875 131.710938 102.554688 C 129.957031 102.859375 129.742188 103.667969 129.511719 104.75 C 129.144531 102.917969 128.414062 102.824219 127.3125 102.546875 C 128.75 102.203125 129.148438 101.929688 129.496094 100.34375 Z M 129.496094 100.34375 " fill-opacity="1" fill-rule="nonzero"/><path fill="#ffffff" d="M 101.320312 127.242188 L 96.726562 134.726562 C 97.652344 135.519531 98.664062 136.210938 99.746094 136.785156 L 102.886719 132.21875 L 101.476562 137.570312 C 102.875 138.113281 104.367188 138.46875 105.921875 138.597656 L 107.351562 131.9375 L 108.78125 138.597656 C 110.332031 138.46875 111.824219 138.113281 113.222656 137.570312 L 111.816406 132.21875 L 114.953125 136.785156 C 116.039062 136.210938 117.050781 135.519531 117.972656 134.726562 L 113.382812 127.242188 Z M 101.320312 127.242188 " fill-opacity="1" fill-rule="nonzero"/><path fill="#ffffff" d="M 123.683594 121.152344 C 123.257812 114.757812 119.199219 110.863281 118.289062 110.035156 C 118.222656 111.082031 117.917969 113.457031 116.195312 115.695312 C 115.292969 116.871094 114.289062 117.625 113.542969 118.089844 C 114.226562 116.867188 118.308594 109.230469 115.195312 100.460938 C 113.132812 94.644531 109.011719 91.433594 107.351562 90.277344 C 105.691406 91.433594 101.570312 94.644531 99.507812 100.460938 C 96.394531 109.230469 100.476562 116.867188 101.160156 118.089844 C 100.414062 117.628906 99.410156 116.871094 98.507812 115.695312 C 96.785156 113.457031 96.480469 111.082031 96.414062 110.035156 C 95.503906 110.863281 91.445312 114.757812 91.019531 121.152344 C 90.671875 126.335938 92.925781 130.105469 93.726562 131.328125 C 93.726562 127.796875 96.578125 124.9375 100.089844 124.9375 L 107.351562 124.941406 L 114.617188 124.9375 C 118.132812 124.9375 120.980469 127.796875 120.980469 131.328125 C 121.78125 130.105469 124.03125 126.335938 123.683594 121.152344 Z M 107.351562 107.109375 C 105.742188 107.109375 104.4375 105.800781 104.4375 104.183594 C 104.4375 102.566406 105.742188 101.257812 107.351562 101.257812 C 108.960938 101.257812 110.265625 102.566406 110.265625 104.183594 C 110.265625 105.800781 108.960938 107.109375 107.351562 107.109375 Z M 107.351562 107.109375 " fill-opacity="1" fill-rule="nonzero"/></svg>